ModelForces
version=1
nRows=4
nColumns=155
inDegrees=no

This file contains the forces exerted on a model during a simulation.

A force is a generalized force, meaning that it can be either a force (N) or a torque (Nm).

Units are S.I. units (second, meters, Newtons, ...)
Angles are in degrees.

endheader
time	glut_med1_r	glut_med2_r	glut_med3_r	glut_min1_r	glut_min2_r	glut_min3_r	semimem_r	semiten_r	bifemlh_r	bifemsh_r	sar_r	add_long_r	add_brev_r	add_mag1_r	add_mag2_r	add_mag3_r	tfl_r	pect_r	grac_r	glut_max1_r	glut_max2_r	glut_max3_r	iliacus_r	psoas_r	quad_fem_r	gem_r	peri_r	rect_fem_r	vas_med_r	vas_int_r	vas_lat_r	med_gas_r	lat_gas_r	soleus_r	tib_post_r	flex_dig_r	flex_hal_r	tib_ant_r	per_brev_r	per_long_r	per_tert_r	ext_dig_r	ext_hal_r	glut_med1_l	glut_med2_l	glut_med3_l	glut_min1_l	glut_min2_l	glut_min3_l	semimem_l	semiten_l	bifemlh_l	bifemsh_l	sar_l	add_long_l	add_brev_l	add_mag1_l	add_mag2_l	add_mag3_l	tfl_l	pect_l	grac_l	glut_max1_l	glut_max2_l	glut_max3_l	iliacus_l	psoas_l	quad_fem_l	gem_l	peri_l	rect_fem_l	vas_med_l	vas_int_l	vas_lat_l	med_gas_l	lat_gas_l	soleus_l	tib_post_l	flex_dig_l	flex_hal_l	tib_ant_l	per_brev_l	per_long_l	per_tert_l	ext_dig_l	ext_hal_l	ercspn_r	ercspn_l	intobl_r	intobl_l	extobl_r	extobl_l	femur_lat_meniscii_r.femur_lat_r.force.X	femur_lat_meniscii_r.femur_lat_r.force.Y	femur_lat_meniscii_r.femur_lat_r.force.Z	femur_lat_meniscii_r.femur_lat_r.torque.X	femur_lat_meniscii_r.femur_lat_r.torque.Y	femur_lat_meniscii_r.femur_lat_r.torque.Z	femur_lat_meniscii_r.meniscus_lat_r.force.X	femur_lat_meniscii_r.meniscus_lat_r.force.Y	femur_lat_meniscii_r.meniscus_lat_r.force.Z	femur_lat_meniscii_r.meniscus_lat_r.torque.X	femur_lat_meniscii_r.meniscus_lat_r.torque.Y	femur_lat_meniscii_r.meniscus_lat_r.torque.Z	femur_med_meniscii_r.femur_med_r.force.X	femur_med_meniscii_r.femur_med_r.force.Y	femur_med_meniscii_r.femur_med_r.force.Z	femur_med_meniscii_r.femur_med_r.torque.X	femur_med_meniscii_r.femur_med_r.torque.Y	femur_med_meniscii_r.femur_med_r.torque.Z	femur_med_meniscii_r.meniscus_med_r.force.X	femur_med_meniscii_r.meniscus_med_r.force.Y	femur_med_meniscii_r.meniscus_med_r.force.Z	femur_med_meniscii_r.meniscus_med_r.torque.X	femur_med_meniscii_r.meniscus_med_r.torque.Y	femur_med_meniscii_r.meniscus_med_r.torque.Z	femur_med_tibia_r.tibia_upper_r.force.X	femur_med_tibia_r.tibia_upper_r.force.Y	femur_med_tibia_r.tibia_upper_r.force.Z	femur_med_tibia_r.tibia_upper_r.torque.X	femur_med_tibia_r.tibia_upper_r.torque.Y	femur_med_tibia_r.tibia_upper_r.torque.Z	femur_med_tibia_r.femur_med_r.force.X	femur_med_tibia_r.femur_med_r.force.Y	femur_med_tibia_r.femur_med_r.force.Z	femur_med_tibia_r.femur_med_r.torque.X	femur_med_tibia_r.femur_med_r.torque.Y	femur_med_tibia_r.femur_med_r.torque.Z	femur_lat_tibia_r.tibia_upper_r.force.X	femur_lat_tibia_r.tibia_upper_r.force.Y	femur_lat_tibia_r.tibia_upper_r.force.Z	femur_lat_tibia_r.tibia_upper_r.torque.X	femur_lat_tibia_r.tibia_upper_r.torque.Y	femur_lat_tibia_r.tibia_upper_r.torque.Z	femur_lat_tibia_r.femur_lat_r.force.X	femur_lat_tibia_r.femur_lat_r.force.Y	femur_lat_tibia_r.femur_lat_r.force.Z	femur_lat_tibia_r.femur_lat_r.torque.X	femur_lat_tibia_r.femur_lat_r.torque.Y	femur_lat_tibia_r.femur_lat_r.torque.Z	aACL_R	pACL_R	aPCL_R	pPCL_R	aMCL_R	mMCL_R	pMCL_R	aLCL_R	mLCL_R	pLCL_R	aPCL_L	pPCL_L	aMCL_L	aLCL_L
      0.13739670	     12.73284997	      9.50462396	     10.23813422	      4.36550807	      5.04042758	      5.55946042	    101.90398946	    168.64823933	    181.90622261	    338.41459727	    127.06702163	      9.47341282	      6.76778176	      0.00000000	      4.15214481	      7.06524603	      6.79928073	      3.68810925	     99.92249541	      6.14074143	      9.34422233	      7.03559901	     29.68973788	     20.97304451	      6.01907550	      4.00990521	      6.29973275	     34.02101030	      0.00000000	      0.00000000	      0.00000000	      0.00000000	     15.26112320	      0.00000000	      0.00000000	      0.00000000	      0.00000000	     30.90926706	      1.45938334	      1.14884819	     17.44435528	     22.54828317	      6.08831072	     12.73284997	      9.50462396	     10.23813422	      4.36550807	      5.04042758	      5.55946042	      0.00000000	      7.09852186	     13.76312085	     11.98232908	      2.48941211	      9.47341282	      6.76778176	      0.00000000	      4.15214481	      7.06524603	      5.99599673	      3.68810925	      2.57544802	      6.14074143	      9.34422233	      7.03559901	     29.68973788	     20.97304451	      6.01907550	      4.00990521	      6.29973275	     19.65683994	      0.00000000	      0.00000000	      0.00000000	     21.16348585	     10.14613794	     55.83884803	     54.14014165	      6.07060862	      5.41552711	     15.07239870	      8.14696444	     20.03271129	      3.24112335	     10.66928927	      3.38367924	     41.10254863	     41.10254863	     15.42176878	     15.42176878	     32.60940472	     32.60940472	    404.13565152	    399.64221590	     53.13298264	    -31.29361175	     10.08451013	    162.57298440	   -404.13565152	   -399.64221590	    -53.13298264	     12.27458978	    -12.10112440	     -2.74403049	    402.36948328	    547.05186938	     -0.43694966	     12.11542328	     -8.23295855	    159.69431468	   -402.36948328	   -547.05186938	      0.43694966	    -10.13863992	      6.90761550	      1.34460765	    -31.88513987	   -201.00728491	     76.17599026	     -5.04638449	      1.64034166	      2.23315383	     31.88513987	    201.00728491	    -76.17599026	     34.87376893	     -0.77113492	     12.54535063	      0.00000000	      0.00000000	      0.00000000	      0.00000000	      0.00000000	      0.00000000	      0.00000000	      0.00000000	      0.00000000	      0.00000000	      0.00000000	      0.00000000	     18.03093594	      9.61719154	    474.06406188	    331.12934893	      0.00000000	      0.00000000	      0.00000000	      0.00445211	      0.00000000	      0.00000000	      0.00000000	      0.00000000	      0.00000001	      0.00000000
      0.13777159	     12.71862962	      9.48554158	     10.21735188	      4.35708894	      5.03118352	      5.54790259	    101.33444210	    168.44590010	    181.87043165	    338.47352705	    127.00838706	      9.45418250	      6.75485000	      0.00000000	      4.14377810	      7.04995953	      6.79650995	      3.68095138	     99.82635687	      6.12834806	      9.32532423	      7.02117155	     29.65435604	     20.93269073	      6.00723094	      4.00405624	      6.30484076	     34.13617865	      0.00000000	      0.00000000	      0.00000000	      0.00000000	     15.12530187	      0.00000000	      0.00000000	      0.00000000	      0.00000000	     31.00845221	      1.44068262	      1.13239305	     17.14913981	     22.66922873	      6.11833421	     12.71862962	      9.48554158	     10.21735188	      4.35708894	      5.03118352	      5.54790259	      0.00000000	      7.08346201	     13.74180182	     11.95869817	      2.48463333	      9.45418250	      6.75485000	      0.00000000	      4.14377810	      7.04995953	      5.98667389	      3.68095138	      2.57041865	      6.12834806	      9.32532423	      7.02117155	     29.65435604	     20.93269073	      6.00723094	      4.00405624	      6.30484076	     19.61413425	      0.00000000	      0.00000000	      0.00000000	     21.17975023	     10.14983776	     55.77960731	     54.09265578	      6.05934102	      5.40527321	     15.04524991	      8.13045339	     20.00654172	      3.23491493	     10.63672011	      3.37212248	     41.02310663	     41.02310663	     15.38971767	     15.38971767	     32.58016497	     32.58016497	    401.80782043	    396.74858566	     54.93623336	    -31.95701113	     10.03904397	    161.62142599	   -401.80782043	   -396.74858566	    -54.93623336	     12.23080393	    -12.06893774	     -2.68257513	    409.80643952	    555.56579205	      0.36810739	     11.93222409	     -8.37132245	    162.63402944	   -409.80643952	   -555.56579205	     -0.36810739	    -10.24374559	      7.01714380	      1.41042283	    -32.65264635	   -202.15932395	     76.26309301	     -5.05619366	      1.65993734	      2.25171765	     32.65264635	    202.15932395	    -76.26309301	     34.91964221	     -0.78628541	     12.85044335	      0.00000000	      0.00000000	      0.00000000	      0.00000000	      0.00000000	      0.00000000	      0.00000000	      0.00000000	      0.00000000	      0.00000000	      0.00000000	      0.00000000	     18.21555668	      9.73728779	    478.13803231	    333.68300525	      0.00000000	      0.00000000	      0.00000000	      0.59093031	      0.00000000	      0.00000000	      0.00000000	      0.00000000	      0.00000001	      0.00000000
      0.13832735	     12.69706117	      9.45743063	     10.18673647	      4.34468565	      5.01756579	      5.53086081	    100.49731296	    168.17492830	    181.83953528	    338.65342690	    126.94635754	      9.42585420	      6.73579822	      0.00000000	      4.13144295	      7.02743655	      6.79377864	      3.67040508	     99.70503160	      6.11009142	      9.29748581	      6.99991883	     29.60224003	     20.87325056	      5.98978039	      3.99544098	      6.31186584	     34.31575448	      5.95227381	      0.00000000	      0.00000000	      0.00000000	     14.52206664	      0.00000000	      0.00000000	      0.00000000	      0.00000000	     31.15199063	      1.41322484	      1.10837518	     21.01054621	     22.84963819	      6.16306127	     12.69706117	      9.45743063	     10.18673647	      4.34468565	      5.01756579	      5.53086081	      0.00000000	      7.06127735	     13.71008902	     11.92388608	      2.47759303	      9.42585420	      6.73579822	      0.00000000	      4.13144295	      7.02743655	      5.97293372	      3.67040508	      2.56300942	      6.11009142	      9.29748581	      6.99991883	     29.60224003	     20.87325056	      5.98978039	      3.99544098	      6.31186584	     19.55115439	      0.00000000	      0.00000000	      0.00000000	     21.20253217	     10.15479503	     55.69085143	     54.02237582	      6.04295279	      5.39042330	     15.00501226	      8.10605252	     19.96770579	      3.22576972	     10.58859225	      3.35510244	     40.90607101	     40.90607101	     15.34250332	     15.34250332	     32.53709757	     32.53709757	    402.50863043	    386.59632348	     54.31955951	    -31.45464350	     10.02881159	    161.99656739	   -402.50863043	   -386.59632348	    -54.31955951	     11.92042241	    -12.04979395	     -2.86425847	    423.03184639	    556.51770206	      0.63494549	     11.78130323	     -8.63388539	    168.01059797	   -423.03184639	   -556.51770206	     -0.63494549	    -10.20426952	      7.24207930	      1.18383677	    -33.46537678	   -203.38452449	     76.83981249	     -5.08134914	      1.69256008	      2.28422593	     33.46537678	    203.38452449	    -76.83981249	     35.16803193	     -0.80538521	     13.16739709	      0.00000000	      0.00000000	      0.00000000	      0.00000000	      0.00000000	      0.00000000	      0.00000000	      0.00000000	      0.00000000	      0.00000000	      0.00000000	      0.00000000	     18.61582047	     10.07398029	    484.25834456	    337.61182935	      0.00000000	      0.00000000	      0.00000000	      1.53327167	      0.00000000	      0.00000000	      0.00000000	      0.00000000	      0.00000001	      0.00000000
      0.13861091	     12.68584143	      9.44316937	     10.17120458	      4.33839285	      5.01065725	      5.52220827	    100.05611868	    168.02307458	    181.80023878	    338.66154669	    126.89993153	      9.41148294	      6.72613215	      0.00000000	      4.12518079	      7.01600846	      6.79314135	      3.66505399	     99.63161681	      6.10082968	      9.28336329	      6.98913731	     29.57580337	     20.84309829	      5.98092656	      3.99107078	      6.31520391	     34.40031195	      9.72058780	      0.00000000	      0.00000000	      0.00000000	     14.02245550	      0.00000000	      0.00000000	      0.00000000	      0.00000000	     31.22932293	      1.39931825	      1.09618520	     18.13626458	     22.94373080	      6.18653825	     12.68584143	      9.44316937	     10.17120458	      4.33839285	      5.01065725	      5.52220827	      0.00000000	      7.05002287	     13.69386174	     11.90622494	      2.47402111	      9.41148294	      6.72613215	      0.00000000	      4.12518079	      7.01600846	      5.96596021	      3.66505399	      2.55925043	      6.10082968	      9.28336329	      6.98913731	     29.57580337	     20.84309829	      5.98092656	      3.99107078	      6.31520391	     19.51917258	      0.00000000	      0.00000000	      0.00000000	     21.21355480	     10.15708581	     55.64514613	     53.98657347	      6.03473185	      5.38300283	     14.98448930	      8.09363836	     19.94787430	      3.22113048	     10.56411622	      3.34647209	     40.84669334	     40.84669334	     15.31855110	     15.31855110	     32.51525166	     32.51525166	    398.44587896	    386.45964011	     54.12654144	    -31.36343153	      9.92693129	    160.30079241	   -398.44587896	   -386.45964011	    -54.12654144	     11.89720586	    -11.93044270	     -2.69763747	    424.61013872	    560.70953482	      0.48309947	     11.90269543	     -8.66965073	    168.58902216	   -424.61013872	   -560.70953482	     -0.48309947	    -10.26021748	      7.27947091	      1.30205736	    -33.76161695	   -204.51078677	     76.77530359	     -5.08613617	      1.70115956	      2.31395878	     33.76161695	    204.51078677	    -76.77530359	     35.15096409	     -0.81133978	     13.27718696	      0.00000000	      0.00000000	      0.00000000	      0.00000000	      0.00000000	      0.00000000	      0.00000000	      0.00000000	      0.00000000	      0.00000000	      0.00000000	      0.00000000	     18.46399368	      9.94998134	    487.51791401	    339.89883666	      0.00000000	      0.00000000	      0.00000000	      1.79911821	      0.00000000	      0.00000000	      0.00000000	      0.00000000	      0.00000001	      0.00000000
